<svg xmlns="http://www.w3.org/2000/svg" width="38.887" height="30.245" viewBox="0 0 38.887 30.245">
  <path id="Icon_awesome-credit-card" data-name="Icon awesome-credit-card" d="M0,29.255A3.241,3.241,0,0,0,3.241,32.5H35.646a3.241,3.241,0,0,0,3.241-3.241V17.373H0Zm12.962-4.591a.813.813,0,0,1,.81-.81h9.182a.813.813,0,0,1,.81.81v2.7a.813.813,0,0,1-.81.81H13.772a.813.813,0,0,1-.81-.81Zm-8.641,0a.813.813,0,0,1,.81-.81H9.992a.813.813,0,0,1,.81.81v2.7a.813.813,0,0,1-.81.81H5.131a.813.813,0,0,1-.81-.81ZM38.887,5.491V8.731H0V5.491A3.241,3.241,0,0,1,3.241,2.25H35.646A3.241,3.241,0,0,1,38.887,5.491Z" transform="translate(0 -2.25)" fill="#fff"/>
</svg>
