<svg xmlns="http://www.w3.org/2000/svg" width="11.782" height="11.782" viewBox="0 0 11.782 11.782">
  <path id="Icon_awesome-facebook-square" data-name="Icon awesome-facebook-square" d="M10.519,2.25H1.262A1.262,1.262,0,0,0,0,3.512v9.257a1.262,1.262,0,0,0,1.262,1.262H4.872V10.026H3.215V8.141H4.872V6.7A2.3,2.3,0,0,1,7.335,4.167a10.037,10.037,0,0,1,1.46.127V5.9H7.973A.943.943,0,0,0,6.91,6.917V8.141H8.719l-.289,1.885H6.91v4.005h3.609a1.262,1.262,0,0,0,1.262-1.262V3.512A1.262,1.262,0,0,0,10.519,2.25Z" transform="translate(0 -2.25)" fill="#fff"/>
</svg>
