<svg xmlns="http://www.w3.org/2000/svg" width="12.521" height="12.518" viewBox="0 0 12.521 12.518">
  <path id="Icon_awesome-instagram" data-name="Icon awesome-instagram" d="M6.257,5.287A3.209,3.209,0,1,0,9.466,8.5,3.2,3.2,0,0,0,6.257,5.287Zm0,5.3A2.087,2.087,0,1,1,8.343,8.5,2.09,2.09,0,0,1,6.257,10.583Zm4.089-5.427A.749.749,0,1,1,9.6,4.407.747.747,0,0,1,10.346,5.156Zm2.126.76A3.7,3.7,0,0,0,11.46,3.293,3.729,3.729,0,0,0,8.838,2.282c-1.034-.059-4.131-.059-5.165,0A3.724,3.724,0,0,0,1.05,3.29,3.717,3.717,0,0,0,.039,5.913c-.059,1.034-.059,4.131,0,5.165A3.7,3.7,0,0,0,1.05,13.7a3.734,3.734,0,0,0,2.623,1.011c1.034.059,4.131.059,5.165,0A3.7,3.7,0,0,0,11.46,13.7a3.729,3.729,0,0,0,1.011-2.623c.059-1.034.059-4.128,0-5.162Zm-1.335,6.271a2.112,2.112,0,0,1-1.19,1.19,13.8,13.8,0,0,1-3.69.251,13.9,13.9,0,0,1-3.69-.251,2.112,2.112,0,0,1-1.19-1.19A13.8,13.8,0,0,1,1.125,8.5a13.9,13.9,0,0,1,.251-3.69,2.112,2.112,0,0,1,1.19-1.19,13.8,13.8,0,0,1,3.69-.251,13.9,13.9,0,0,1,3.69.251,2.112,2.112,0,0,1,1.19,1.19,13.8,13.8,0,0,1,.251,3.69A13.788,13.788,0,0,1,11.136,12.187Z" transform="translate(0.005 -2.238)" fill="#fff"/>
</svg>
