<svg xmlns="http://www.w3.org/2000/svg" width="27.283" height="26.553" viewBox="0 0 27.283 26.553">
  <g id="_833314" data-name="833314" transform="translate(0 -6.028)">
    <g id="Grupo_15" data-name="Grupo 15" transform="translate(0 6.028)">
      <g id="Grupo_14" data-name="Grupo 14">
        <path id="Caminho_3" data-name="Caminho 3" d="M99.5,350.322a2.848,2.848,0,1,0,2.848,2.848A2.848,2.848,0,0,0,99.5,350.322Zm0,4.431a1.582,1.582,0,1,1,1.582-1.582A1.582,1.582,0,0,1,99.5,354.753Z" transform="translate(-90.798 -329.466)" fill="#fff"/>
        <path id="Caminho_4" data-name="Caminho 4" d="M298.032,350.322a2.848,2.848,0,1,0,2.848,2.848A2.848,2.848,0,0,0,298.032,350.322Zm0,4.431a1.582,1.582,0,1,1,1.582-1.582A1.582,1.582,0,0,1,298.032,354.753Z" transform="translate(-277.303 -329.466)" fill="#fff"/>
        <path id="Caminho_5" data-name="Caminho 5" d="M27.154,10.269a.791.791,0,0,0-.506-.253l-20.6-.285L5.475,7.99A2.912,2.912,0,0,0,2.753,6.028H.633a.633.633,0,1,0,0,1.266h2.12A1.646,1.646,0,0,1,4.273,8.4L8.292,20.523l-.316.728A3.038,3.038,0,0,0,8.26,24a2.943,2.943,0,0,0,2.374,1.329H22.945a.633.633,0,1,0,0-1.266H10.634a1.614,1.614,0,0,1-1.329-.76,1.741,1.741,0,0,1-.158-1.519l.253-.57,13.324-1.393a3.481,3.481,0,0,0,3.007-2.658l1.519-6.361A.538.538,0,0,0,27.154,10.269ZM24.5,16.883a2.152,2.152,0,0,1-1.931,1.677L9.4,19.922,6.456,11l19.4.285Z" transform="translate(0 -6.028)" fill="#fff"/>
      </g>
    </g>
  </g>
</svg>
